<?xml version="1.0" encoding="UTF-8" standalone="no"?>
<!-- Created with Inkscape (http://www.inkscape.org/) -->

<svg
   width="210mm"
   height="297mm"
   viewBox="0 0 210 297"
   version="1.1"
   id="svg5"
   inkscape:export-filename="/Users/amitesh.thind/Downloads/bitmap.png"
   inkscape:export-xdpi="96"
   inkscape:export-ydpi="96"
   inkscape:version="1.1.1 (c3084ef, 2021-09-22)"
   sodipodi:docname="icon.svg"
   xmlns:inkscape="http://www.inkscape.org/namespaces/inkscape"
   xmlns:sodipodi="http://sodipodi.sourceforge.net/DTD/sodipodi-0.dtd"
   xmlns="http://www.w3.org/2000/svg"
   xmlns:svg="http://www.w3.org/2000/svg">
  <sodipodi:namedview
     id="namedview7"
     pagecolor="#ffffff"
     bordercolor="#666666"
     borderopacity="1.0"
     inkscape:pageshadow="2"
     inkscape:pageopacity="0.0"
     inkscape:pagecheckerboard="0"
     inkscape:document-units="mm"
     showgrid="false"
     inkscape:lockguides="true"
     inkscape:zoom="0.77771465"
     inkscape:cx="388.96014"
     inkscape:cy="588.26203"
     inkscape:window-width="1312"
     inkscape:window-height="1075"
     inkscape:window-x="2488"
     inkscape:window-y="23"
     inkscape:window-maximized="0"
     inkscape:current-layer="layer1" />
  <defs
     id="defs2" />
  <g
     inkscape:label="Layer 1"
     inkscape:groupmode="layer"
     id="layer1">
    <path
       style="fill:#0a972b;fill-opacity:1;stroke-width:0.718542"
       d="M 29.686174,296.51154 C 17.098212,294.66917 5.5559972,282.70441 1.823914,267.62938 0.70152996,263.09575 0.62371926,255.32618 0.62371926,147.78936 0.62371926,39.704699 0.6967436,32.502072 1.8392932,27.882331 4.7877007,15.961027 12.726161,6.7876266 23.903344,2.3859723 l 4.609241,-1.81514393 81.870835,-0.0139412 81.87086,-0.0139412 3.89323,2.31549353 c 5.59381,3.3268809 8.3163,6.0779438 10.55307,10.6637145 1.8532,3.799441 2.00078,4.774721 2.56748,16.968389 0.33071,7.115494 0.49941,53.412166 0.37492,102.881527 l -0.2265,89.94428 -1.51916,4.23488 c -2.25239,6.27879 -5.51855,10.0687 -11.5407,13.39126 l -5.19744,2.86752 -39.49005,0.47674 c -21.71952,0.26209 -57.980031,0.51838 -80.578943,0.56926 l -41.088864,0.0925 -2.281191,1.94155 c -6.910642,5.88169 -6.619377,18.17369 0.556196,23.47242 l 2.587736,1.91087 h 84.375996 84.37597 l 2.74598,2.02775 c 3.16172,2.33473 6.06768,7.36964 6.06768,10.51296 0,3.46843 -2.56587,8.4802 -5.31994,10.39117 l -2.50254,1.73642 -83.32652,0.0995 c -45.829557,0.0548 -85.247145,-0.1817 -87.594622,-0.52531 z M 111.83907,192.33088 v -10.10825 l 3.91126,-1.35708 c 13.37424,-4.64056 22.2688,-14.28313 24.96986,-27.06976 1.36481,-6.46091 1.31042,-9.17461 -0.32709,-16.31901 -2.50744,-10.93975 -8.2248,-17.67986 -20.39142,-24.03899 -18.47823,-9.65809 -22.212672,-11.90788 -25.056393,-15.095022 -2.856195,-3.201084 -2.94032,-3.432369 -2.662679,-7.320336 0.242357,-3.394914 0.678732,-4.46281 2.825828,-6.916368 1.396527,-1.595895 3.701591,-3.290215 5.122354,-3.765192 5.94928,-1.988944 19.09636,-0.48204 26.44018,3.03063 4.92339,2.354901 5.20206,2.167253 7.19283,-4.843032 0.97805,-3.44408 1.96484,-7.810184 2.19287,-9.702469 l 0.4146,-3.440502 -4.66365,-1.676057 C 124.90913,61.230279 118.71544,59.7665 115.07011,59.75386 l -3.23104,-0.0093 v -9.108249 -9.108296 h -6.78183 -6.781852 l -0.190292,9.601117 -0.190291,9.601117 -4.081303,1.25336 c -10.252221,3.148433 -17.889172,9.72208 -21.886667,18.839251 -3.610199,8.233903 -2.890633,21.76499 1.613486,30.34115 3.144408,5.98719 11.327178,12.36255 21.633607,16.85519 14.111542,6.15132 21.517232,11.98106 22.465462,17.68478 0.70226,4.22423 -0.15989,7.85438 -2.60268,10.95894 -3.47914,4.42164 -6.70878,5.60167 -15.355544,5.61045 -8.776321,0.009 -14.172802,-1.23784 -21.51219,-4.97004 -3.269974,-1.66281 -5.586032,-2.4444 -5.970923,-2.01492 -0.345802,0.38571 -1.162919,2.87022 -1.815803,5.52076 -0.652859,2.65055 -1.663227,6.5612 -2.245228,8.69034 -0.582027,2.12915 -0.858743,4.218 -0.614958,4.64196 1.457209,2.53404 15.415166,7.47392 23.497854,8.31615 l 4.494129,0.46829 v 9.75753 9.75754 h 8.162603 8.16258 z"
       id="path7397" />
  </g>
</svg>
