<svg xmlns="http://www.w3.org/2000/svg" id="prefix__Student_On_Book" width="646.765" height="576.409" viewBox="0 0 646.765 576.409">
    <defs>
        <style>
            .prefix__cls-1{fill:#50bfa5}.prefix__cls-2{fill:#3c8f7c}.prefix__cls-3{fill:#355389}.prefix__cls-4{fill:#466eb6}.prefix__cls-5{fill:#f7cc7f}.prefix__cls-6{fill:#fae0b2}.prefix__cls-7{fill:#96d9c9}.prefix__cls-9{fill:#b75742}.prefix__cls-10{fill:#86b1f2}.prefix__cls-11{fill:#f47458}.prefix__cls-12{fill:#184655}.prefix__cls-13{fill:#f7a491}.prefix__cls-14{fill:#13375b}.prefix__cls-15{fill:#fff}
        </style>
    </defs>
    <path id="prefix__Path_1" d="M1555.947 660.966l-6.2 1.9-4.164-9.638-9.409 1.664-4.295-6.7-3.394 2.174 5.745 8.966 8.916-1.577 4.332 10.027 9.33-2.863z" class="prefix__cls-1" data-name="Path 1" transform="translate(-1349.922 -551.05)"/>
    <path id="prefix__Path_2" d="M2454.858 1444.676l-6.2 1.9-4.164-9.638-9.409 1.664-4.3-6.7-3.393 2.174 5.744 8.966 8.917-1.577 4.332 10.026 9.33-2.863z" class="prefix__cls-1" data-name="Path 2" transform="translate(-1851.214 -988.098)"/>
    <g id="prefix__Group_3" data-name="Group 3" transform="translate(131.82 310.84)">
        <g id="prefix__Group_2" data-name="Group 2">
            <path id="prefix__Path_3" d="M1458.813 1391.156s-33.086-112.143-35.74-136.879 15.846-17.071 15.846-17.071-15.564-47.136-4.31-58.323 21.406 9.666 21.406 9.666 3.407-57.219 15.406-57.24c22.35-.04 21.909 62.4 21.909 62.4s5.7-24.447 17.672-17.745c18.048 10.107-7.833 59.1-7.833 59.1s23 .017 31.074 11.612c14.495 20.805-75.43 144.48-75.43 144.48z" class="prefix__cls-1" data-name="Path 3" transform="translate(-1422.812 -1131.307)"/>
        </g>
    </g>
    <g id="prefix__Group_5" data-name="Group 5" transform="translate(7.017 390.839)">
        <g id="prefix__Group_4" data-name="Group 4">
            <path id="prefix__Path_4" d="M1312.287 1477.17s-95.381-15.95-116.127-32.85-.212-24.521-.212-24.521-47.915-24.563-47.36-41.264 24.358-8.211 24.358-8.211-40.373-46.036-30.815-54.779c17.8-16.285 64.476 31.571 64.476 31.571s-13.859-22.758.737-26.36c22.011-5.432 38.257 50.686 38.257 50.686s-4.128-22.162 11.05-19.209c27.231 5.295 55.636 124.937 55.636 124.937z" class="prefix__cls-1" data-name="Path 4" transform="translate(-1140.666 -1312.164)"/>
        </g>
        <path id="prefix__Path_5" d="M1258.5 1352.232c-15.215-2.751-11.05 19.209-11.05 19.209s-16.245-56.118-38.257-50.686c-14.6 3.6-.737 26.36-.737 26.36s-46.673-47.856-64.476-31.571l169.83 161.656c-3.022-15.443-29.81-120.356-55.31-124.968z" class="prefix__cls-2" data-name="Path 5" transform="translate(-1142.512 -1312.164)"/>
    </g>
    <g id="prefix__Group_6" data-name="Group 6" transform="translate(0 490.141)">
        <path id="prefix__Path_6" d="M1330.575 1615.8s-50.23-51.082-75.526-56.4-20.746 12.678-20.746 12.678-50.187-43.889-61.817-33.255.95 20.9.95 20.9-41.8-7.407-47.788 6.311c-9.2 21.079 59.556 32.552 59.556 32.552s-28.811 2-22.129 15.214c10.077 19.928 167.5 2 167.5 2z" class="prefix__cls-3" data-name="Path 6" transform="translate(-1124.802 -1536.936)"/>
        <path id="prefix__Path_7" d="M1126.716 1565.752c5.984-13.718 47.788-6.311 47.788-6.311s-12.581-10.266-.95-20.9 60.257 27.286 60.257 27.286-11.466-21.916 13.83-16.6 84 66.289 84 66.289z" class="prefix__cls-4" data-name="Path 7" transform="translate(-1125.869 -1536.659)"/>
    </g>
    <g id="prefix__Group_14" data-name="Group 14" transform="translate(249.454 15.636)">
        <path id="prefix__Path_8" d="M1750.562 523.566c-16.907 2.782-21.929 24.973-7.873 34.9a12.9 12.9 0 0 1 5.015 7.464l2.559 10.322a5.622 5.622 0 0 0 6.369 4.195l6.406-1.054a5.621 5.621 0 0 0 4.689-6.014c-.889-10.657-1.988-14.523 1.477-19.276 10.132-13.903-1.731-33.32-18.642-30.537z" class="prefix__cls-5" data-name="Path 8" transform="translate(-1714.273 -497.037)"/>
        <g id="prefix__Group_7" data-name="Group 7" transform="translate(28.733 39.103)">
            <path id="prefix__Path_9" d="M1762.988 584.873c-1.1-9.13-2.646-18.77-3.172-21.5-9.692.535-6.008-9.681-1.536-5.527a8.465 8.465 0 0 1 2.273 4.548 25.054 25.054 0 0 0 9.234-2.69c-.155-2.251-.376-3.958.253-5.4.949-2.176 3.707-2.769 4.829-.648a3.387 3.387 0 0 1 .19 2.659c-.648 1.8-2.606 2.99-4.31 3.921.51 7.259 1.216 14.573 2.1 21.777l-.915.113c-.875-7.087-1.574-14.282-2.081-21.424a25.993 25.993 0 0 1-9.118 2.6c.663 3.5 2.129 12.891 3.163 21.463zm-7.774-23.656c.861.928 2.3 1.336 4.41 1.239a7.5 7.5 0 0 0-1.971-3.938c-2.406-2.236-3.883 1.141-2.439 2.698zm15.672-6.546c-.529 1.211-.327 2.762-.206 4.546 1.384-.788 2.993-1.773 3.513-3.217.365-1.013-.046-2.443-1.076-2.707-.112-.03-1.861.527-2.232 1.377z" class="prefix__cls-6" data-name="Path 9" transform="translate(-1753.707 -552.332)"/>
        </g>
        <path id="prefix__Path_10" d="M1764.159 615.116c.023.086.053.169.075.255l2.559 10.322a5.621 5.621 0 0 0 6.369 4.195l6.405-1.054a5.621 5.621 0 0 0 4.689-6.014c-.4-4.741-.831-8.136-.89-10.865z" class="prefix__cls-7" data-name="Path 10" transform="translate(-1730.803 -546.479)"/>
        <g id="prefix__Group_8" data-name="Group 8" transform="translate(18.473 6.862)">
            <path id="prefix__Path_11" d="M1735.795 491.4l-5.056-9.229a1.844 1.844 0 1 1 3.235-1.772l5.056 9.229a1.844 1.844 0 1 1-3.235 1.772z" class="prefix__cls-6" data-name="Path 11" transform="translate(-1730.512 -479.443)"/>
        </g>
        <g id="prefix__Group_9" data-name="Group 9" transform="translate(0 36.5)">
            <path id="prefix__Path_12" d="M1701.454 551.092l-11.021-.964a1.844 1.844 0 0 1 .322-3.674l11.021.964a1.844 1.844 0 1 1-.322 3.674z" class="prefix__cls-6" data-name="Path 12" transform="translate(-1688.75 -546.447)"/>
        </g>
        <g id="prefix__Group_10" data-name="Group 10" transform="translate(1.244 64.791)">
            <path id="prefix__Path_13" d="M1692.095 620.547a1.843 1.843 0 0 1 .015-2.608 60.328 60.328 0 0 1 8.855-7.223 1.844 1.844 0 1 1 2.049 3.067 56.563 56.563 0 0 0-8.312 6.78 1.844 1.844 0 0 1-2.607-.016z" class="prefix__cls-6" data-name="Path 13" transform="translate(-1691.562 -610.405)"/>
        </g>
        <g id="prefix__Group_11" data-name="Group 11" transform="translate(49.616)">
            <path id="prefix__Path_14" d="M1802.288 482.253a1.844 1.844 0 0 1-1.306-2.258 70.126 70.126 0 0 0 2.273-14.319 1.844 1.844 0 1 1 3.683.2 73.789 73.789 0 0 1-2.393 15.073 1.844 1.844 0 0 1-2.257 1.304z" class="prefix__cls-6" data-name="Path 14" transform="translate(-1800.919 -463.931)"/>
        </g>
        <g id="prefix__Group_12" data-name="Group 12" transform="translate(62.256 26.659)">
            <path id="prefix__Path_15" d="M1829.573 530.03a1.844 1.844 0 0 1 1.233-2.3l11.457-3.453a1.844 1.844 0 0 1 1.065 3.532l-11.458 3.453a1.844 1.844 0 0 1-2.297-1.232z" class="prefix__cls-6" data-name="Path 15" transform="translate(-1829.494 -524.2)"/>
        </g>
        <g id="prefix__Group_13" data-name="Group 13" transform="translate(68.204 54.835)">
            <path id="prefix__Path_16" d="M1855.892 596.039a1.839 1.839 0 0 1-.5-.069 57.858 57.858 0 0 1-11.473-4.6 1.844 1.844 0 0 1 1.731-3.256 54.208 54.208 0 0 0 10.741 4.305 1.844 1.844 0 0 1-.5 3.62z" class="prefix__cls-6" data-name="Path 16" transform="translate(-1842.94 -587.898)"/>
        </g>
    </g>
    <path id="prefix__Path_17" d="M2223.94 731.423l-5.78-13.669-14.537-2.987a2.039 2.039 0 0 1-.925-3.538l11.213-9.722-1.651-14.748a2.039 2.039 0 0 1 3.08-1.974l12.71 7.661 13.517-6.128a2.04 2.04 0 0 1 2.829 2.319l-3.358 14.455 10.005 10.961a2.039 2.039 0 0 1-1.331 3.406l-14.786 1.274-7.333 12.9a2.04 2.04 0 0 1-3.653-.21z" class="prefix__cls-5" data-name="Path 17" transform="translate(-1725.514 -571.292)"/>
    <path id="prefix__Path_18" fill="#f48c7f" d="M2414.892 684.566l-2.376 9.569-15.82-2.123-5.2 13.563-12.1.347.175 6.124 16.18-.464 4.928-12.853 16.457 2.208 3.576-14.4z" data-name="Path 18" transform="translate(-1824.447 -571.336)"/>
    <path id="prefix__Path_19" d="M1766.192 1656.344h-278.074c-10.621 0-19.231-8.931-19.231-19.947v-11.861c0-11.017 8.61-19.947 19.231-19.947h278.074a39.4 39.4 0 0 0-.511 51.151z" class="prefix__cls-9" data-name="Path 19" transform="translate(-1316.686 -1084.401)"/>
    <path id="prefix__Path_20" d="M1912.612 1618h-154.234c-10.621 0-19.231 8.931-19.231 19.947s8.61 19.946 19.231 19.946h154.247a39.573 39.573 0 0 1-.013-39.893z" class="prefix__cls-6" data-name="Path 20" transform="translate(-1467.401 -1091.877)"/>
    <path id="prefix__Path_21" d="M1706.885 1521.269a1.153 1.153 0 0 0-1.146-1.636H1558.6c-11.533 0-20.882 8.414-20.882 18.793s9.349 18.793 20.882 18.793h147.18a1.158 1.158 0 0 0 1.148-1.645 36.005 36.005 0 0 1-.043-34.305z" class="prefix__cls-10" data-name="Path 21" transform="translate(-1355.072 -1037.023)"/>
    <path id="prefix__Path_22" d="M1795.227 1527.54H1722.3c-13.536 0-24.508 7.05-24.508 15.749s10.972 15.748 24.508 15.748h73.4a35.94 35.94 0 0 1-.473-31.497z" class="prefix__cls-5" data-name="Path 22" transform="translate(-1444.342 -1041.433)"/>
    <g id="prefix__Group_15" data-name="Group 15" transform="translate(318.858 493.572)">
        <path id="prefix__Path_23" d="M1858.849 1544.417h-9.5c-2.043 0-3.7.686-3.7 1.532v.137h13.195z" class="prefix__cls-9" data-name="Path 23" transform="translate(-1845.654 -1544.417)"/>
        <path id="prefix__Path_24" d="M1871.449 1548.258c0-2.121-2.481-3.841-5.54-3.841h-12.187c2.32 0 4.2 1.3 4.2 2.913l-.058 41.175 6.734-5.3 6.864 5.3z" class="prefix__cls-11" data-name="Path 24" transform="translate(-1850.153 -1544.417)"/>
    </g>
    <g id="prefix__Group_17" data-name="Group 17" transform="translate(172.991 446.933)">
        <path id="prefix__Path_25" d="M1733.736 1475.428h-85.613c-7.592 0-13.747-7.3-13.747-16.315 0-9.011 6.155-16.315 13.747-16.315h85.613a28.7 28.7 0 0 0-.611 31.7z" class="prefix__cls-6" data-name="Path 25" transform="translate(-1581.965 -1441.108)"/>
        <path id="prefix__Path_26" d="M1568.308 1456.983c0-9.011 6.3-16.316 14.071-16.316h86.912a.794.794 0 0 0 .729-.853.792.792 0 0 0-.729-.837h-137.874c-8.577 0-15.529 8.061-15.529 18.006 0 9.944 6.953 18.006 15.529 18.006h137.873a.793.793 0 0 0 .73-.838.8.8 0 0 0-.73-.853h-86.911c-7.771.002-14.071-7.305-14.071-16.315z" class="prefix__cls-4" data-name="Path 26" transform="translate(-1515.888 -1438.977)"/>
        <g id="prefix__Group_16" data-name="Group 16" transform="translate(123.627 9.708)">
            <path id="prefix__Path_27" d="M1808.57 1460.925h-9.5c-2.043 0-3.7.672-3.7 1.5v.135h13.195z" class="prefix__cls-12" data-name="Path 27" transform="translate(-1795.375 -1460.925)"/>
            <path id="prefix__Path_28" d="M1821.169 1464.692c0-2.081-2.48-3.767-5.54-3.767h-12.188c2.321 0 4.2 1.279 4.2 2.857l-.057 40.379 6.734-5.193 6.864 5.193z" class="prefix__cls-2" data-name="Path 28" transform="translate(-1799.873 -1460.925)"/>
        </g>
    </g>
    <g id="prefix__Group_20" data-name="Group 20" transform="translate(193.225 112.29)">
        <g id="prefix__Group_19" data-name="Group 19" transform="translate(156.829 91.561)">
            <path id="prefix__Path_29" d="M2153.4 892.854l12.639-3.326-8.567 114.254-15.163.506 7.649-107.283a4.632 4.632 0 0 1 3.442-4.151z" class="prefix__cls-12" data-name="Path 29" transform="translate(-2042.284 -889.487)"/>
            <g id="prefix__Group_18" data-name="Group 18">
                <path id="prefix__Path_30" d="M2172.8 1006.989a4.12 4.12 0 0 1-.866-.013 5.068 5.068 0 0 1-4.149-5.576l8.412-107.433a4.607 4.607 0 0 1 4.94-4.5 5.068 5.068 0 0 1 4.15 5.576l-8.412 107.433a4.718 4.718 0 0 1-4.075 4.513z" class="prefix__cls-5" data-name="Path 30" transform="translate(-2056.484 -889.435)"/>
                <path id="prefix__Path_31" d="M1916.18 1154.148c.005.079.009.157.016.237.4 4.371 3.783 7.64 7.563 7.3l106.738-9.553c3.781-.338 6.526-4.156 6.13-8.527-.017-.185-.041-.367-.069-.547z" class="prefix__cls-5" data-name="Path 31" transform="translate(-1916.18 -1030.872)"/>
            </g>
        </g>
        <path id="prefix__Path_32" d="M2018.3 1424.554c-6.99 3.875-28.353-2.92-28.353-3.535-.307 5.84-23.923 62.987-23.923 62.987l.019 17.583s48.662 2.32 47.961-1.98-3.317-1.5-13.024-9.625c-.862-.721-14.491-3.884-10.8-11.952 7.43-16.247 23.207-43.332 28.12-53.478z" class="prefix__cls-13" data-name="Path 32" transform="translate(-1787.15 -1094.32)"/>
        <path id="prefix__Path_33" d="M1960.556 1581.569l53.267.015c1.922-.2 2.372-1.759 1.693-2.71-1.4-1.958-11.606-6.575-18.469-9.637-11.953 1.4-32.964-3.2-34.887-5.926-5.06 6.777-2.677 18.037-1.604 18.258z" class="prefix__cls-2" data-name="Path 33" transform="translate(-1783.258 -1173.671)"/>
        <path id="prefix__Path_34" d="M1935.808 1261.851c-.72-2.161 45.862-21.929 47.947-19.67 3.688 4-25.2 78.989-25.2 78.989l33.194 10.142s34.509-86.641 33.068-102.488-18.728-33.855-56.184-22.33-32.825 55.357-32.825 55.357z" class="prefix__cls-3" data-name="Path 34" transform="translate(-1770.195 -972.648)"/>
        <path id="prefix__Path_35" d="M2113.022 1448.8c-7.863-1.432-18.055-1.839-26.214-1.981.961 7.265 5.631 44.515 4.778 46.8a27.951 27.951 0 0 1-11.128 13.613s36.17 32.635 38.354 28.865-1.612-3.265-3.974-15.7c-.21-1.1-5.439-18.46-5.764-27.822-.619-17.852 3.678-33.864 3.948-43.775z" class="prefix__cls-13" data-name="Path 35" transform="translate(-1850.963 -1108.707)"/>
        <path id="prefix__Path_36" d="M1884.966 1172.781c-5.046-2.692-18.146-2.786-32.55-1.853a330.507 330.507 0 0 0-82.515 16.2l-17.876 5.921.059-18.328s-56.867-9.515-58.846 4.579c-2.98 21.225.717 64.314 19.665 73.931 58.852 29.873 141.325-47.592 141.624-37.456.4 13.61 11.876 64.261 14.809 86.437 8.159.141 22.177.135 28.257-1.261 1.182-43.445 1.737-120.506-12.627-128.17z" class="prefix__cls-4" data-name="Path 36" transform="translate(-1634.512 -954.554)"/>
        <path id="prefix__Path_37" d="M2077.916 1566.891l40.66 32.48c1.611 1.066 2.949.143 3.026-1.023.159-2.4-4.81-12.442-8.177-19.159-10.131-6.5-23.491-23.436-23.251-26.762-4.287 3.618-12.947 13.612-12.258 14.464z" class="prefix__cls-2" data-name="Path 37" transform="translate(-1849.524 -1167.601)"/>
        <path id="prefix__Path_38" d="M1697.991 723.514c-1.366-12.485-2.8-25.017-13.154-34.168-8.376-7.406-19.025-8.66-29.555-4.7-29.836 11.226-14.463 37.724-52.506 64.439-11.821 8.3-24.85 13.983-33.75 25.161-12.457 15.646-7.755 34.467 3.6 47.032 54.325 60.122 114.975-21.074 119.329-40.565 3.238-14.498 6.915-49.161 6.036-57.199z" class="prefix__cls-14" data-name="Path 38" transform="translate(-1561.631 -682.44)"/>
        <path id="prefix__Path_39" d="M1758.513 899.99a165.784 165.784 0 0 0-9.009-14.673C1744.9 877.135 1733.01 873 1733.01 873s-3.978.081-8.545.3a3.614 3.614 0 0 1-.861 1.517c-1.717 1.287-11.553-.375-17.907 3.939-21.3 18.256-15.407 106.743-13.732 134.691l64.86.614s-8.177-60.136 5-75.586c9.175-10.757 3.275-26.35-3.312-38.485z" class="prefix__cls-1" data-name="Path 39" transform="translate(-1633.185 -788.707)"/>
        <path id="prefix__Path_40" d="M1770.915 801.377s-3.565 25.462-6.055 31.65 13.691 19.42 27.156 23.437-4.115-13.667-3.557-20.282 3.005-37.932 3.005-37.932z" class="prefix__cls-13" data-name="Path 40" transform="translate(-1674.822 -747.023)"/>
        <path id="prefix__Path_41" d="M1797.364 807.23c.394-5.181.68-8.981.68-8.981l-20.549 3.128s-.518 2.991-1.091 7.221c8.331 4.833 15.822 3.308 20.96-1.368z" class="prefix__cls-11" data-name="Path 41" transform="translate(-1681.403 -747.023)"/>
        <path id="prefix__Path_42" d="M1771.717 699.889a23.343 23.343 0 0 0-13.1 9.458c-5 7.632-8.433 30.1 8.04 40.587s29.281-4.347 29.494-18.817-2.89-33.779-24.434-31.228z" class="prefix__cls-13" data-name="Path 42" transform="translate(-1669.181 -692.043)"/>
        <path id="prefix__Path_43" d="M1846.91 750.482c-1.406 3.492-4.193 5.658-6.227 4.84s-2.543-4.313-1.138-7.8 4.193-5.658 6.227-4.84 2.544 4.308 1.138 7.8z" class="prefix__cls-13" data-name="Path 43" transform="translate(-1716.172 -715.936)"/>
        <path id="prefix__Path_44" d="M1763.2 699.1s-10.326 23.162-19.4 25.23-8.94 13.723-8.94 13.723.2-26.913 8.705-33.086 19.635-5.867 19.635-5.867z" class="prefix__cls-14" data-name="Path 44" transform="translate(-1658.238 -691.731)"/>
        <path id="prefix__Path_45" d="M1751.01 760.086c1.194 3.762.1 7.465-2.441 8.272s-5.572-1.587-6.766-5.349-.1-7.465 2.441-8.272 5.571 1.588 6.766 5.349z" class="prefix__cls-13" data-name="Path 45" transform="translate(-1661.837 -722.671)"/>
        <path id="prefix__Path_46" d="M1857.715 1054.9c-3.892-1.407-9.685-1.581-9.588-2.1.391-2.08 17.583 4.59 15.26 1.556-1.292-1.689-14.159-7.674-17.287-6.686-3.034.958-22.959 6.55-22.959 6.55l-54.455-12.762s-13.745-31.234-15.086-58.069c-11.362 1.536-19.1 4.344-28.972 9.825 4.762 25.662 16.337 67.26 29.132 75.066 5.382 3.283 69.652-3.93 69.652-3.93s14.163-1 16.478-1.891c1.756-.676 6.274-3.22 8.733-3.916 5.588-1.582 15.543 2.39 15.574 1.3.021-.798-2.506-3.506-6.482-4.943z" class="prefix__cls-13" data-name="Path 46" transform="translate(-1652.528 -850.271)"/>
        <path id="prefix__Path_47" d="M1746.828 894.083c-.524-8.257-3.651-16.23-12.437-18.8a17.789 17.789 0 0 0-15.905 3.485c-5.177 4.229-6.622 11.011-6.6 17.43a249.185 249.185 0 0 0 3.711 44.04c9.875-5.481 21.4-8.775 32.764-10.311-.003-.082-.84-24.927-1.533-35.844z" class="prefix__cls-7" data-name="Path 47" transform="translate(-1645.424 -789.632)"/>
    </g>
    <g id="prefix__Group_21" data-name="Group 21" transform="translate(38.651 147.774)">
        <path id="prefix__Path_48" d="M1299.8 854.568l-84.423-15.721a3.123 3.123 0 0 1-2.5-3.642l10.576-56.794a3.123 3.123 0 0 1 3.642-2.5l84.423 15.721a3.123 3.123 0 0 1 2.5 3.642l-10.576 56.793a3.123 3.123 0 0 1-3.642 2.501z" class="prefix__cls-5" data-name="Path 48" transform="translate(-1212.539 -770.021)"/>
        <path id="prefix__Path_49" d="M1282.984 782.28l-25.7-4.786a3.123 3.123 0 0 1-2.5-3.641l1.61-8.642a3.122 3.122 0 0 1 3.642-2.5l25.7 4.785a3.123 3.123 0 0 1 2.5 3.642l-1.609 8.642a3.123 3.123 0 0 1-3.643 2.5z" class="prefix__cls-5" data-name="Path 49" transform="translate(-1235.912 -762.659)"/>
        <path id="prefix__Path_50" d="M1303.285 859.749a3.123 3.123 0 0 1-3.577 2.222l-84.975-15.823a3.124 3.124 0 0 1-2.539-3.342l4.447-50.909a3.124 3.124 0 0 1 3.683-2.8l94.4 17.578a3.123 3.123 0 0 1 2.434 3.918z" class="prefix__cls-6" data-name="Path 50" transform="translate(-1212.182 -777.373)"/>
    </g>
    <g id="prefix__Group_22" data-name="Group 22" transform="translate(499.402 29.719)">
        <path id="prefix__Path_51" d="M2271.387 510.182l-14.457 3.947-3.114-17.519 4.731-.841 2.192 12.339 9.381-2.561z" class="prefix__cls-1" data-name="Path 51" transform="translate(-2253.817 -495.769)"/>
    </g>
    <g id="prefix__Group_26" data-name="Group 26" transform="translate(120.082)">
        <path id="prefix__Path_55" d="M1511.255 486.443l-90.723 32.363a5.621 5.621 0 0 1-7.184-3.406l-16.748-46.943a5.623 5.623 0 0 1 3.406-7.184l90.723-32.363a5.622 5.622 0 0 1 7.184 3.406l16.746 46.943a5.622 5.622 0 0 1-3.404 7.184z" class="prefix__cls-10" data-name="Path 55" transform="translate(-1396.275 -428.582)"/>
        <path id="prefix__Path_56" d="M1476.248 517.054a17.979 17.979 0 1 1-22.974-10.893 17.978 17.978 0 0 1 22.974 10.893z" class="prefix__cls-15" data-name="Path 56" transform="translate(-1421.401 -471.259)"/>
        <path id="prefix__Path_57" d="M1474.83 521.982a5.3 5.3 0 1 1-6.774-3.212 5.3 5.3 0 0 1 6.774 3.212z" class="prefix__cls-10" data-name="Path 57" transform="translate(-1434.34 -478.704)"/>
        <path id="prefix__Rectangle_1" d="M8.182 0h.578a8.183 8.183 0 0 1 8.183 8.183H0A8.182 8.182 0 0 1 8.182 0z" class="prefix__cls-10" data-name="Rectangle 1" transform="rotate(-19.632 177.18 -59.89)"/>
        <g id="prefix__Group_24" data-name="Group 24" transform="translate(54.79 17.248)">
            <path id="prefix__Path_58" d="M1522.434 486.307a2.293 2.293 0 0 1-.771-4.453l39.659-14.147a2.293 2.293 0 0 1 1.541 4.319l-39.663 14.148a2.282 2.282 0 0 1-.766.133z" class="prefix__cls-15" data-name="Path 58" transform="translate(-1520.141 -467.574)"/>
        </g>
        <g id="prefix__Group_25" data-name="Group 25" transform="translate(65.496 30.232)">
            <path id="prefix__Path_59" d="M1546.637 512.564a2.293 2.293 0 0 1-.77-4.453l30.974-11.049a2.293 2.293 0 0 1 1.541 4.319l-30.974 11.049a2.294 2.294 0 0 1-.771.134z" class="prefix__cls-15" data-name="Path 59" transform="translate(-1544.344 -496.928)"/>
        </g>
    </g>
    <path id="prefix__Path_60" d="M1683.188 1359.874h-219.062a12.317 12.317 0 0 0-12.317 12.317v10.36a12.317 12.317 0 0 0 12.317 12.317h219.062l-.115-.119a25.083 25.083 0 0 1 .115-34.875z" class="prefix__cls-11" data-name="Path 60" transform="translate(-1307.162 -947.931)"/>
    <path id="prefix__Path_61" d="M1802.958 1371.585h-117.107a12.317 12.317 0 0 0-12.317 12.317 12.317 12.317 0 0 0 12.317 12.317h117.1a25.117 25.117 0 0 1 .007-24.634z" class="prefix__cls-6" data-name="Path 61" transform="translate(-1430.811 -954.462)"/>
    <g id="prefix__Group_30" data-name="Group 30" transform="translate(538.417 341.875)">
        <g id="prefix__Group_28" data-name="Group 28">
            <path id="prefix__Path_62" d="M2358.915 1272.545l-16.6-41.66a4.085 4.085 0 0 1 2.282-5.307l59.753-23.817a4.085 4.085 0 0 1 5.307 2.282l16.605 41.661a4.086 4.086 0 0 1-2.282 5.308l-59.752 23.816a4.086 4.086 0 0 1-5.313-2.283z" class="prefix__cls-6" data-name="Path 62" transform="translate(-2342.019 -1201.469)"/>
            <path id="prefix__Path_63" d="M2488.73 1258.47l-14.921-37.436a1.172 1.172 0 0 1 .655-1.523 1.172 1.172 0 0 1 1.522.655l14.922 37.436a1.172 1.172 0 0 1-.655 1.523 1.172 1.172 0 0 1-1.523-.655z" class="prefix__cls-4" data-name="Path 63" transform="translate(-2415.467 -1211.484)"/>
            <path id="prefix__Path_64" d="M2476.024 1255.77l-12.251-30.736a1.173 1.173 0 0 1 .655-1.523 1.172 1.172 0 0 1 1.523.655l12.249 30.734a1.172 1.172 0 0 1-.654 1.522 1.173 1.173 0 0 1-1.522-.652z" class="prefix__cls-4" data-name="Path 64" transform="translate(-2409.871 -1213.714)"/>
            <path id="prefix__Path_65" d="M2468.66 1266.47l-14.921-37.436a1.172 1.172 0 0 1 .655-1.523 1.172 1.172 0 0 1 1.523.655l14.921 37.436a1.172 1.172 0 0 1-.655 1.523 1.172 1.172 0 0 1-1.523-.655z" class="prefix__cls-4" data-name="Path 65" transform="translate(-2404.275 -1215.945)"/>
            <path id="prefix__Path_66" d="M2455.221 1261.927l-11.516-28.894a1.172 1.172 0 0 1 .655-1.523 1.172 1.172 0 0 1 1.523.655l11.517 28.894a1.172 1.172 0 0 1-.655 1.523 1.173 1.173 0 0 1-1.524-.655z" class="prefix__cls-4" data-name="Path 66" transform="translate(-2398.679 -1218.176)"/>
            <g id="prefix__Group_27" data-name="Group 27" transform="translate(65.905 4.456)">
                <path id="prefix__Path_67" d="M2497.969 1212.645l-.3-.754a.526.526 0 0 0-.673-.314l-5.671 2.26a.525.525 0 0 0-.272.691l.3.754a.526.526 0 0 0 .673.314l5.671-2.26a.525.525 0 0 0 .272-.691z" class="prefix__cls-3" data-name="Path 67" transform="translate(-2491.012 -1211.542)"/>
                <path id="prefix__Path_68" d="M2500.875 1219.934l-.3-.754a.526.526 0 0 0-.673-.314l-5.671 2.261a.525.525 0 0 0-.272.691l.3.754a.525.525 0 0 0 .672.314l5.671-2.26a.526.526 0 0 0 .273-.692z" class="prefix__cls-3" data-name="Path 68" transform="translate(-2492.632 -1215.608)"/>
                <path id="prefix__Path_69" d="M2503.78 1227.224l-.3-.754a.525.525 0 0 0-.673-.314l-5.672 2.261a.525.525 0 0 0-.272.691l.3.754a.526.526 0 0 0 .673.314l5.671-2.26a.526.526 0 0 0 .273-.692z" class="prefix__cls-3" data-name="Path 69" transform="translate(-2494.252 -1219.673)"/>
                <path id="prefix__Path_70" d="M2506.685 1234.513l-.3-.754a.526.526 0 0 0-.673-.314l-5.671 2.261a.525.525 0 0 0-.272.691l.3.754a.525.525 0 0 0 .673.314l5.671-2.26a.526.526 0 0 0 .272-.692z" class="prefix__cls-3" data-name="Path 70" transform="translate(-2495.872 -1223.738)"/>
                <path id="prefix__Path_71" d="M2509.591 1241.8l-.3-.754a.526.526 0 0 0-.674-.314l-5.671 2.26a.527.527 0 0 0-.273.691l.3.754a.526.526 0 0 0 .673.314l5.671-2.26a.525.525 0 0 0 .274-.691z" class="prefix__cls-3" data-name="Path 71" transform="translate(-2497.492 -1227.803)"/>
                <path id="prefix__Path_72" d="M2512.5 1249.092l-.3-.753a.526.526 0 0 0-.673-.314l-5.671 2.261a.526.526 0 0 0-.273.691l.3.753a.525.525 0 0 0 .673.314l5.671-2.26a.526.526 0 0 0 .273-.692z" class="prefix__cls-3" data-name="Path 72" transform="translate(-2499.113 -1231.868)"/>
                <path id="prefix__Path_73" d="M2515.4 1256.382l-.3-.754a.525.525 0 0 0-.673-.314l-5.671 2.26a.526.526 0 0 0-.272.691l.3.754a.525.525 0 0 0 .673.314l5.672-2.26a.525.525 0 0 0 .271-.691z" class="prefix__cls-3" data-name="Path 73" transform="translate(-2500.733 -1235.933)"/>
                <path id="prefix__Path_74" d="M2518.307 1263.671l-.3-.754a.525.525 0 0 0-.672-.314l-5.671 2.261a.525.525 0 0 0-.273.691l.3.754a.525.525 0 0 0 .673.314l5.67-2.26a.526.526 0 0 0 .273-.692z" class="prefix__cls-3" data-name="Path 74" transform="translate(-2502.353 -1239.998)"/>
                <path id="prefix__Path_75" d="M2521.213 1270.96l-.3-.754a.526.526 0 0 0-.673-.314l-5.67 2.26a.526.526 0 0 0-.272.691l.3.753a.526.526 0 0 0 .673.315l5.671-2.26a.525.525 0 0 0 .271-.691z" class="prefix__cls-3" data-name="Path 75" transform="translate(-2503.974 -1244.063)"/>
                <path id="prefix__Path_76" d="M2524.119 1278.25l-.3-.754a.525.525 0 0 0-.673-.314l-5.671 2.26a.525.525 0 0 0-.272.691l.3.754a.524.524 0 0 0 .672.314l5.671-2.26a.527.527 0 0 0 .273-.691z" class="prefix__cls-3" data-name="Path 76" transform="translate(-2505.594 -1248.129)"/>
                <path id="prefix__Path_77" d="M2527.023 1285.54l-.3-.754a.524.524 0 0 0-.672-.314l-5.671 2.26a.526.526 0 0 0-.273.69l.3.754a.526.526 0 0 0 .673.314l5.672-2.261a.525.525 0 0 0 .271-.689z" class="prefix__cls-3" data-name="Path 77" transform="translate(-2507.214 -1252.194)"/>
                <path id="prefix__Path_78" d="M2529.929 1292.829l-.3-.754a.526.526 0 0 0-.673-.314l-5.671 2.26a.526.526 0 0 0-.272.691l.3.754a.525.525 0 0 0 .673.314l5.671-2.261a.524.524 0 0 0 .272-.69z" class="prefix__cls-3" data-name="Path 78" transform="translate(-2508.835 -1256.259)"/>
            </g>
        </g>
        <g id="prefix__Group_29" data-name="Group 29" transform="translate(76.363 37.312)">
            <path id="prefix__Path_79" d="M2540.958 1286.218l-23.715 33.769a.907.907 0 0 0-.122.246l-2.418 7.42a.929.929 0 0 0 1.442 1.029l6.347-4.784a.926.926 0 0 0 .2-.208l23.776-33.856a.929.929 0 0 0-.26-1.317l-3.991-2.549a.929.929 0 0 0-1.259.25z" class="prefix__cls-9" data-name="Path 79" transform="translate(-2514.655 -1285.823)"/>
            <path id="prefix__Path_80" d="M2522.871 1367.164l-.058.083-6.125 4.616-1.67-1.117 2.291-7.033a28.563 28.563 0 0 1 5.562 3.451z" class="prefix__cls-5" data-name="Path 80" transform="translate(-2514.857 -1329.259)"/>
        </g>
    </g>
    <g id="prefix__Group_31" data-name="Group 31" transform="translate(379.427 8.222)">
        <path id="prefix__Path_81" d="M2010.466 460.248c3.413 2.724 9.352 11.491 16.928 17.646 4.432 3.6 7.846 2.684 13.5 3.368 26.843 3.245 19.569 8.731 22.787 9.27-.914 2.1-9.277 19.88-10.839 23.473-1.441 3.314-3.933 4.8-7.543 4.3-5.551-.767-11.152-1.338-16.617-2.523-14.009-3.038-21.8-10.044-31.844-18.554a6.565 6.565 0 0 1-1.939-8.264c6.43-14.851 14.869-27.349 15.567-28.716z" class="prefix__cls-4" data-name="Path 81" transform="translate(-1989.062 -454.463)"/>
        <path id="prefix__Path_82" d="M2060.116 504.623c-.121 5.849.328 7.023-2.185 6.136a35.316 35.316 0 0 1-4.405-1.967c-1.008-.52-1.046-1.206-.228-2.029 1.192-1.2 2.415-2.362 3.607-3.523a5.178 5.178 0 0 1 2.272-6.22c.438-.257.118.287 3.856-8.316-12.361-1.525-21.084-2.548-36.165-4.4a20.289 20.289 0 0 1-10.737-4.672q-16.158-13.519-32.307-27.048a2.98 2.98 0 0 1-.486-4.4 3.374 3.374 0 0 1 3.325-.948c3.443.431 37.189 4.624 40.614 5.024a22.184 22.184 0 0 1 11.947 5.136q15.874 13.293 31.788 26.537c1.454 1.214 1.848 2.328 1.337 3.678a2.843 2.843 0 0 1-3.638 1.791c-1.338-.288-1.929.115-2.389 1.353-2.079 5.6-3.528 6.834-3.028 8.876.39 1.577-1.485 4.307-3.178 4.992z" class="prefix__cls-10" data-name="Path 82" transform="translate(-1982.585 -447.169)"/>
    </g>
    <g id="prefix__Group_33" data-name="Group 33" transform="translate(512.818 447.224)">
        <path id="prefix__Path_83" d="M2284.428 1455.817l6.15 5.865a163.461 163.461 0 0 1 34.994 48.489l.942 2s16.1 1.423 18.354-13.137a243.346 243.346 0 0 1-35.359-51.93l-2.911-6.809z" class="prefix__cls-4" data-name="Path 83" transform="translate(-2284.303 -1440.001)"/>
        <path id="prefix__Path_84" d="M2306.427 1439.906c.791 1.134-3.529 5.512-9.648 9.779s-11.748 6.86-12.538 5.727 3.557-5.564 9.676-9.831 11.72-6.808 12.51-5.675z" class="prefix__cls-10" data-name="Path 84" transform="translate(-2284.147 -1439.636)"/>
        <path id="prefix__Path_85" d="M2312.721 1440.311l-.02-.022s-12.259 10.376-17.312 11.436l1.56 2.124a64.712 64.712 0 0 0 6.1-3.8c6.051-4.218 10.337-8.549 9.672-9.738z" class="prefix__cls-3" data-name="Path 85" transform="translate(-2290.417 -1440)"/>
        <g id="prefix__Group_32" data-name="Group 32" transform="translate(7.423 30.438)">
            <path id="prefix__Path_86" d="M2354.569 1508.449c.022 1.789-.662 9.509-13.507 12.731q1.268 1.727 2.491 3.484c8.131-2.4 11.788-6.578 13.431-9.756.259-.5.573-1.178.782-1.7q-1.627-2.36-3.197-4.759z" class="prefix__cls-9" data-name="Path 86" transform="translate(-2323.31 -1508.449)"/>
            <path id="prefix__Path_87" d="M2319.833 1531.219l-18.9-.676 4.479 3.8-2.676 4.858 17.892-4.562z" class="prefix__cls-9" data-name="Path 87" transform="translate(-2300.93 -1520.77)"/>
            <path id="prefix__Path_88" d="M2339.094 1542.01l-6.717 11.7 4.724-1.8 1.819 3.716 3.157-12.306z" class="prefix__cls-9" data-name="Path 88" transform="translate(-2318.467 -1527.165)"/>
            <path id="prefix__Path_89" d="M2345.209 1533.547a6.211 6.211 0 1 1 5.573-6.619 6.12 6.12 0 0 1-5.573 6.619z" class="prefix__cls-11" data-name="Path 89" transform="translate(-2322.017 -1515.529)"/>
        </g>
    </g>
    <g id="prefix__Group_35" data-name="Group 35" transform="translate(542.324 166.815)">
        <path id="prefix__Path_90" fill="#9bc1f9" d="M2392.089 869.1l-39.811-35.524c-2.587-2.308-1.51-7.058 2.06-9.079l31.772-17.99a4.965 4.965 0 0 1 5.8.271l39.81 35.522c2.587 2.308 1.51 7.058-2.059 9.079l-31.773 17.99a4.966 4.966 0 0 1-5.799-.269z" data-name="Path 90" transform="translate(-2350.852 -805.706)"/>
        <g id="prefix__Group_34" data-name="Group 34" transform="translate(36.018 5.247)">
            <path id="prefix__Path_91" d="M2435.612 847.451l-3.318-27.294a2.448 2.448 0 0 1 1.7-2.494 1.58 1.58 0 0 1 2.161 1.291l3.055 25.115 30.187 7.3a1.666 1.666 0 0 1 1.013 2.371 2.34 2.34 0 0 1-2.556 1.507z" class="prefix__cls-15" data-name="Path 91" transform="translate(-2432.28 -817.569)"/>
        </g>
    </g>
    <path id="prefix__Path_93" d="M1252.922 602.494l4.115 8.14 9.3-.3 3.967 9.451 9.8-3.374 4.958 10.49 9.41-1.993 6.42 9.313-3.525 2.43-4.8-6.963-9.93 2.1-4.766-10.084-9.968 3.43-4.377-10.43-9.079.294-3.814-7.545-5.921 1.44-1.012-4.161z" class="prefix__cls-5" data-name="Path 93" transform="translate(-1191.107 -525.567)"/>
    <path id="prefix__Path_94" d="M2383.191 1060.164l8.45 3.434 6.812-6.334 9.2 4.521 5.175-8.984 10.629 4.653 5.785-7.685 10.959 2.8-1.061 4.147-8.194-2.1-6.1 8.109-10.217-4.472-5.262 9.134-10.151-4.988-6.652 6.185-7.833-3.183-3.519 4.976-3.5-2.472z" class="prefix__cls-1" data-name="Path 94" transform="translate(-1823.506 -774.996)"/>
</svg>
